<svg xmlns="http://www.w3.org/2000/svg" id="Layer_1" data-name="Layer 1" viewBox="0 0 500 110.49"><path d="M420.17,94.64h2.72l6.17,12.16h.13l6.05-12.16h2.67v15.85h-2.67v-13h-.09l-6.5,13h-.55l-6.57-12.9h-.18v12.9h-1.18Z" transform="translate(-0.49 -0.37)" style="fill:#fff"></path><path d="M457.57,94.64v1h-8.35v5.67h5.59v1h-5.59v7.11h8.35v1h-11V94.64Z" transform="translate(-0.49 -0.37)" style="fill:#fff"></path><path d="M469.53,109.85a4.16,4.16,0,0,0,1.16-.16,3.37,3.37,0,0,0,1-.48,2.44,2.44,0,0,0,.72-.78,2,2,0,0,0,.27-1.06,2.25,2.25,0,0,0-.37-1.29,4.39,4.39,0,0,0-1-1,9.26,9.26,0,0,0-1.39-.9l-1.6-.83c-.54-.28-1.07-.58-1.6-.89a7.33,7.33,0,0,1-1.39-1,4.92,4.92,0,0,1-1-1.26,3.38,3.38,0,0,1-.37-1.61,4.12,4.12,0,0,1,.34-1.69,3.78,3.78,0,0,1,1-1.35A4.68,4.68,0,0,1,467,94.6a6.82,6.82,0,0,1,2.22-.33,5.93,5.93,0,0,1,3.55,1A5.28,5.28,0,0,1,474.63,98l-1.37.62a6.22,6.22,0,0,0-.61-1.33,4,4,0,0,0-.89-1,3.75,3.75,0,0,0-1.19-.67,4.44,4.44,0,0,0-1.51-.23,3.71,3.71,0,0,0-1.31.21,2.94,2.94,0,0,0-.94.54,2.28,2.28,0,0,0-.55.77,2,2,0,0,0-.19.87,1.87,1.87,0,0,0,.39,1.14,4.5,4.5,0,0,0,1,1,10.06,10.06,0,0,0,1.43.9l1.65.87c.55.29,1.1.6,1.64.92a8.39,8.39,0,0,1,1.43,1,5.14,5.14,0,0,1,1,1.24,3.08,3.08,0,0,1,.38,1.51,4.54,4.54,0,0,1-.35,1.77,4.08,4.08,0,0,1-1.08,1.45,5.15,5.15,0,0,1-1.78,1,7.76,7.76,0,0,1-2.48.36,7.47,7.47,0,0,1-2-.25,5,5,0,0,1-1.59-.73,4.68,4.68,0,0,1-1.18-1.17,7,7,0,0,1-.81-1.57l1.44-.59a5.43,5.43,0,0,0,.67,1.39,4.22,4.22,0,0,0,2.24,1.69A4.6,4.6,0,0,0,469.53,109.85Z" transform="translate(-0.49 -0.37)" style="fill:#fff"></path><path d="M490.74,110.86a9.12,9.12,0,0,1-2.35-.3,8.57,8.57,0,0,1-2.09-.85,8.46,8.46,0,0,1-1.77-1.31,8.15,8.15,0,0,1-1.35-1.7,8.72,8.72,0,0,1-.87-2,8.29,8.29,0,0,1-.3-2.24,7.91,7.91,0,0,1,.3-2.18,8.42,8.42,0,0,1,.87-2,7.87,7.87,0,0,1,1.35-1.65,8.33,8.33,0,0,1,1.77-1.28,8.52,8.52,0,0,1,2.09-.83,9.71,9.71,0,0,1,4.71,0,8.52,8.52,0,0,1,2.09.83A8.33,8.33,0,0,1,497,96.67a7.87,7.87,0,0,1,1.35,1.65,8.42,8.42,0,0,1,.87,2,7.91,7.91,0,0,1,.3,2.18,8.28,8.28,0,0,1-.3,2.23,8.61,8.61,0,0,1-.87,2,8.15,8.15,0,0,1-1.35,1.7,8.46,8.46,0,0,1-1.77,1.31,8.57,8.57,0,0,1-2.09.85A9.14,9.14,0,0,1,490.74,110.86Zm0-.79a5,5,0,0,0,2.41-.57,5.18,5.18,0,0,0,1.75-1.58,7.51,7.51,0,0,0,1.09-2.41,12.2,12.2,0,0,0,.37-3.05,11.58,11.58,0,0,0-.37-3,7.18,7.18,0,0,0-1.09-2.35,5.13,5.13,0,0,0-1.75-1.53,5.19,5.19,0,0,0-2.41-.54,5.31,5.31,0,0,0-2.44.54,5,5,0,0,0-1.75,1.53,7.15,7.15,0,0,0-1.07,2.35,11.59,11.59,0,0,0-.36,3,12.21,12.21,0,0,0,.36,3.05,7.48,7.48,0,0,0,1.07,2.41,4.87,4.87,0,0,0,4.19,2.15Z" transform="translate(-0.49 -0.37)" style="fill:#fff"></path><path d="M49.66,2.1V6.94H13.09V33.77H39.54v4.85H13.09V77.13H.49V2.1Z" transform="translate(-0.49 -0.37)" style="fill:#fff"></path><path d="M80.34,2.1H93V50.79a24.61,24.61,0,0,0,1.64,9,21.89,21.89,0,0,0,4.71,7.41,22.35,22.35,0,0,0,7.38,5,26.33,26.33,0,0,0,19.34,0,21.69,21.69,0,0,0,7.32-5A22,22,0,0,0,138,59.81a25,25,0,0,0,1.62-9V2.1h5.55V50.79a31.35,31.35,0,0,1-1.86,10.85,23.64,23.64,0,0,1-5.84,8.94,28.12,28.12,0,0,1-10.21,6.09,44.38,44.38,0,0,1-15,2.23,39,39,0,0,1-13.73-2.23,28.7,28.7,0,0,1-10-6.12,25.62,25.62,0,0,1-6.11-9,29.11,29.11,0,0,1-2.08-11Z" transform="translate(-0.49 -0.37)" style="fill:#fff"></path><path d="M205.23,74.11a20.75,20.75,0,0,0,5.52-.75,15.41,15.41,0,0,0,4.84-2.27A12,12,0,0,0,219,67.4a9.68,9.68,0,0,0,1.29-5,10.75,10.75,0,0,0-1.78-6.12,21.28,21.28,0,0,0-4.66-4.92,43.57,43.57,0,0,0-6.6-4.23c-2.47-1.31-5-2.63-7.56-4s-5.09-2.72-7.57-4.18a38,38,0,0,1-6.6-4.84,23,23,0,0,1-4.66-6,15.93,15.93,0,0,1-1.78-7.62,19.66,19.66,0,0,1,1.62-8,17.74,17.74,0,0,1,4.74-6.38,22.58,22.58,0,0,1,7.67-4.23A32.61,32.61,0,0,1,203.61.37q10.66,0,16.83,4.47a24.88,24.88,0,0,1,8.92,12.93l-6.47,3a29.49,29.49,0,0,0-2.88-6.3,19.94,19.94,0,0,0-4.2-4.9,17.73,17.73,0,0,0-5.63-3.15A21.65,21.65,0,0,0,203,5.27a17.79,17.79,0,0,0-6.22,1,13.66,13.66,0,0,0-4.42,2.59,10.54,10.54,0,0,0-2.64,3.61,10.16,10.16,0,0,0-.89,4.12A8.85,8.85,0,0,0,190.68,22a23.23,23.23,0,0,0,4.8,4.66,52.06,52.06,0,0,0,6.78,4.23L210.05,35q4,2.1,7.78,4.36a42,42,0,0,1,6.79,5,24.5,24.5,0,0,1,4.79,5.9,14.16,14.16,0,0,1,1.83,7.14,20.61,20.61,0,0,1-1.7,8.37,18.76,18.76,0,0,1-5.09,6.84A24.78,24.78,0,0,1,216,77.21a36.8,36.8,0,0,1-11.72,1.69,36,36,0,0,1-9.64-1.18,24.53,24.53,0,0,1-7.51-3.45,22.29,22.29,0,0,1-5.58-5.55,31.33,31.33,0,0,1-3.82-7.43l6.78-2.8a25.35,25.35,0,0,0,3.18,6.57A21.08,21.08,0,0,0,192.38,70a19.67,19.67,0,0,0,5.93,3.07A22.38,22.38,0,0,0,205.23,74.11Z" transform="translate(-0.49 -0.37)" style="fill:#fff"></path><path d="M267.52,2.1h12.61v75H267.52Z" transform="translate(-0.49 -0.37)" style="fill:#fff"></path><path d="M359.17,78.9A43,43,0,0,1,348,77.48a42.53,42.53,0,0,1-9.92-4,40.62,40.62,0,0,1-8.34-6.22,38.6,38.6,0,0,1-6.41-8,39.69,39.69,0,0,1-4.1-9.48,38,38,0,0,1-1.45-10.56,36.54,36.54,0,0,1,1.45-10.34,38.3,38.3,0,0,1,4.1-9.26,37.43,37.43,0,0,1,6.41-7.84A41.42,41.42,0,0,1,348,1.75a45.69,45.69,0,0,1,22.29,0,41.57,41.57,0,0,1,18.26,10A37.43,37.43,0,0,1,395,19.55a38.3,38.3,0,0,1,4.1,9.26,36.54,36.54,0,0,1,1.45,10.34,38.09,38.09,0,0,1-1.45,10.53,39.56,39.56,0,0,1-4.1,9.51,38.6,38.6,0,0,1-6.41,8,40.41,40.41,0,0,1-8.35,6.22,42.28,42.28,0,0,1-9.91,4A43,43,0,0,1,359.17,78.9Zm0-3.77a23.36,23.36,0,0,0,11.37-2.69A24.1,24.1,0,0,0,378.86,65,35.53,35.53,0,0,0,384,53.56a56.39,56.39,0,0,0,1.75-14.41A54.16,54.16,0,0,0,384,25a34.15,34.15,0,0,0-5.12-11.09,23.7,23.7,0,0,0-8.32-7.25,24.24,24.24,0,0,0-11.37-2.58,24.76,24.76,0,0,0-11.55,2.58,23.44,23.44,0,0,0-8.32,7.25,33.44,33.44,0,0,0-5,11.09,55.54,55.54,0,0,0-1.69,14.14,57.83,57.83,0,0,0,1.69,14.41,34.8,34.8,0,0,0,5,11.39,23.11,23.11,0,0,0,19.87,10.18Z" transform="translate(-0.49 -0.37)" style="fill:#fff"></path><path d="M438.22,2.1h7.06l49.17,54.83h.49V2.1h5.55V78.9h-2.91l-53.27-61h-.43V77.13h-5.66Z" transform="translate(-0.49 -0.37)" style="fill:#fff"></path></svg>