<svg xmlns="http://www.w3.org/2000/svg" id="Layer_1" data-name="Layer 1" viewBox="0 0 500 110.58"><path d="M419.68,94.27h2.72l6.17,12.16h.13l6.05-12.16h2.67v15.85h-2.67v-13h-.09l-6.5,13h-.55L421,97.22h-.18v12.9h-1.18Z" transform="translate(0 0.01)" style="fill:#222"></path><path d="M457.08,94.27v1h-8.35v5.67h5.59v1h-5.59v7.11h8.35v1h-11V94.27Z" transform="translate(0 0.01)" style="fill:#222"></path><path d="M469,109.48a4.16,4.16,0,0,0,1.16-.16,3.3,3.3,0,0,0,1-.48,2.45,2.45,0,0,0,.72-.78,2,2,0,0,0,.27-1.06,2.26,2.26,0,0,0-.37-1.29,4.31,4.31,0,0,0-1-1,9.71,9.71,0,0,0-1.39-.9l-1.6-.83c-.54-.28-1.07-.58-1.6-.89a7.21,7.21,0,0,1-1.39-1,4.88,4.88,0,0,1-1-1.26,3.46,3.46,0,0,1-.37-1.61,4.09,4.09,0,0,1,.34-1.69,3.81,3.81,0,0,1,1-1.35,4.6,4.6,0,0,1,1.7-1,7,7,0,0,1,2.22-.33,6,6,0,0,1,3.55,1,5.24,5.24,0,0,1,1.86,2.73l-1.37.62a6.41,6.41,0,0,0-.61-1.33,4,4,0,0,0-.89-1,3.89,3.89,0,0,0-1.19-.67,4.58,4.58,0,0,0-1.51-.23,3.64,3.64,0,0,0-1.31.21,3,3,0,0,0-.94.54,2.32,2.32,0,0,0-.55.77,2,2,0,0,0-.19.87,1.89,1.89,0,0,0,.39,1.14,4.74,4.74,0,0,0,1,1,10.11,10.11,0,0,0,1.43.9l1.65.87c.55.29,1.1.6,1.64.92a8.34,8.34,0,0,1,1.43,1,5.19,5.19,0,0,1,1,1.24,3.16,3.16,0,0,1,.38,1.51,4.66,4.66,0,0,1-.35,1.77,4.18,4.18,0,0,1-1.08,1.45,5.14,5.14,0,0,1-1.78,1,7.72,7.72,0,0,1-2.48.36,7.51,7.51,0,0,1-2-.25,5.11,5.11,0,0,1-1.59-.73,4.69,4.69,0,0,1-1.18-1.17,6.68,6.68,0,0,1-.81-1.57l1.44-.59a5.57,5.57,0,0,0,.67,1.39,4.21,4.21,0,0,0,2.24,1.69A4.8,4.8,0,0,0,469,109.48Z" transform="translate(0 0.01)" style="fill:#222"></path><path d="M490.25,110.49a9.35,9.35,0,0,1-2.35-.3,8.82,8.82,0,0,1-2.09-.85A8.72,8.72,0,0,1,484,108a8.21,8.21,0,0,1-1.35-1.7,9.11,9.11,0,0,1-.87-2,8.46,8.46,0,0,1-.3-2.24,8,8,0,0,1,.3-2.18,8.25,8.25,0,0,1,.87-2A7.92,7.92,0,0,1,484,96.26,8.59,8.59,0,0,1,485.81,95a8.37,8.37,0,0,1,2.09-.83,9.63,9.63,0,0,1,4.71,0,8.93,8.93,0,0,1,3.9,2.15A7.92,7.92,0,0,1,497.86,98a8.25,8.25,0,0,1,.87,2,8,8,0,0,1,.3,2.18,8.44,8.44,0,0,1-.3,2.23,8.66,8.66,0,0,1-.87,2,8.21,8.21,0,0,1-1.35,1.7,8.72,8.72,0,0,1-1.77,1.31,8.54,8.54,0,0,1-4.49,1.12Zm0-.79a4.92,4.92,0,0,0,2.41-.57,5.21,5.21,0,0,0,1.75-1.58,7.61,7.61,0,0,0,1.09-2.41,12.07,12.07,0,0,0,.37-3,11.69,11.69,0,0,0-.37-3,7.3,7.3,0,0,0-1.09-2.35,4.86,4.86,0,0,0-4.16-2.07,5.3,5.3,0,0,0-2.44.54,5.05,5.05,0,0,0-1.75,1.53A7.05,7.05,0,0,0,485,99.09a11.68,11.68,0,0,0-.36,3,12.06,12.06,0,0,0,.36,3,7.35,7.35,0,0,0,1.07,2.41A4.87,4.87,0,0,0,490.25,109.7Z" transform="translate(0 0.01)" style="fill:#222"></path><path d="M49.17,1.73V6.57H12.6V33.4H39.05v4.85H12.6V76.76H0v-75Z" transform="translate(0 0.01)" style="fill:#222"></path><path d="M79.85,1.73H92.51V50.42a24.69,24.69,0,0,0,1.64,9,22,22,0,0,0,4.71,7.41,22.23,22.23,0,0,0,7.38,5,26.36,26.36,0,0,0,19.34,0,21.64,21.64,0,0,0,7.32-5,22,22,0,0,0,4.61-7.39,24.93,24.93,0,0,0,1.62-9V1.73h5.55V50.42a31.35,31.35,0,0,1-1.86,10.85A23.69,23.69,0,0,1,137,70.21a28.18,28.18,0,0,1-10.21,6.09,44.43,44.43,0,0,1-15,2.23A38.93,38.93,0,0,1,98,76.3a28.66,28.66,0,0,1-10-6.12,25.64,25.64,0,0,1-6.11-9,29.17,29.17,0,0,1-2.08-11Z" transform="translate(0 0.01)" style="fill:#222"></path><path d="M204.74,73.74a20.58,20.58,0,0,0,5.52-.75,15.55,15.55,0,0,0,4.84-2.27A12,12,0,0,0,218.51,67a9.74,9.74,0,0,0,1.29-5A10.73,10.73,0,0,0,218,55.91,21.15,21.15,0,0,0,213.36,51a43.52,43.52,0,0,0-6.6-4.23c-2.47-1.31-5-2.63-7.56-4s-5.09-2.72-7.57-4.18a37.7,37.7,0,0,1-6.6-4.84,23,23,0,0,1-4.66-6,15.89,15.89,0,0,1-1.78-7.62,19.64,19.64,0,0,1,1.62-8A17.77,17.77,0,0,1,185,5.74a22.62,22.62,0,0,1,7.67-4.23A32.76,32.76,0,0,1,203.12,0Q213.78,0,220,4.47a24.88,24.88,0,0,1,8.92,12.93l-6.47,3a29.65,29.65,0,0,0-2.88-6.3,19.7,19.7,0,0,0-4.2-4.9,17.76,17.76,0,0,0-5.63-3.15,21.64,21.64,0,0,0-7.18-1.15,17.79,17.79,0,0,0-6.22,1,13.87,13.87,0,0,0-4.42,2.59,10.47,10.47,0,0,0-2.64,3.61,10.28,10.28,0,0,0-.89,4.12,8.83,8.83,0,0,0,1.85,5.41,23,23,0,0,0,4.8,4.66,51.57,51.57,0,0,0,6.78,4.23l7.79,4.11q4,2.1,7.78,4.36a41.54,41.54,0,0,1,6.79,5,24.75,24.75,0,0,1,4.79,5.9A14.17,14.17,0,0,1,230.75,57a20.75,20.75,0,0,1-1.7,8.37A18.77,18.77,0,0,1,224,72.24a24.86,24.86,0,0,1-8.45,4.6,37,37,0,0,1-11.72,1.69,36.07,36.07,0,0,1-9.64-1.18,24.52,24.52,0,0,1-7.51-3.45,22.29,22.29,0,0,1-5.58-5.55,31.48,31.48,0,0,1-3.82-7.43l6.78-2.8a25.58,25.58,0,0,0,3.18,6.57,21.17,21.17,0,0,0,4.69,4.94,19.8,19.8,0,0,0,5.93,3.07A22.25,22.25,0,0,0,204.74,73.74Z" transform="translate(0 0.01)" style="fill:#222"></path><path d="M267,1.73h12.61v75H267Z" transform="translate(0 0.01)" style="fill:#222"></path><path d="M358.68,78.53a42.94,42.94,0,0,1-11.17-1.42,42.43,42.43,0,0,1-9.92-4,40.62,40.62,0,0,1-8.34-6.22,38.64,38.64,0,0,1-6.41-8,39.88,39.88,0,0,1-4.1-9.48,37.7,37.7,0,0,1-1.45-10.56,36.53,36.53,0,0,1,1.45-10.34,38.34,38.34,0,0,1,4.1-9.26,37.46,37.46,0,0,1,6.41-7.84,41.43,41.43,0,0,1,18.26-10,45.69,45.69,0,0,1,22.29,0,41.53,41.53,0,0,1,18.26,10,37.73,37.73,0,0,1,6.45,7.8,38.34,38.34,0,0,1,4.1,9.26,36.53,36.53,0,0,1,1.45,10.34,38.23,38.23,0,0,1-1.45,10.53,39.29,39.29,0,0,1-4.1,9.51,38.64,38.64,0,0,1-6.41,8A40.32,40.32,0,0,1,379.75,73a42.18,42.18,0,0,1-9.91,4A43.36,43.36,0,0,1,358.68,78.53Zm0-3.77a23.31,23.31,0,0,0,11.37-2.69,24,24,0,0,0,8.32-7.44,35.46,35.46,0,0,0,5.14-11.44,56.47,56.47,0,0,0,1.75-14.41,54.49,54.49,0,0,0-1.75-14.15,34.26,34.26,0,0,0-5.12-11.09,23.62,23.62,0,0,0-8.32-7.25A24.24,24.24,0,0,0,358.7,3.71a24.72,24.72,0,0,0-11.55,2.58,23.52,23.52,0,0,0-8.32,7.25,33.37,33.37,0,0,0-5,11.09,55.23,55.23,0,0,0-1.69,14.14,57.78,57.78,0,0,0,1.69,14.41,34.77,34.77,0,0,0,5,11.39A23.12,23.12,0,0,0,358.7,74.75Z" transform="translate(0 0.01)" style="fill:#222"></path><path d="M437.73,1.73h7.06L494,56.56h.49V1.73H500v76.8h-2.91l-53.27-61h-.43V76.76h-5.66Z" transform="translate(0 0.01)" style="fill:#222"></path></svg>